<svg width="80" height="90" viewBox="0 0 80 90" fill="none" xmlns="http://www.w3.org/2000/svg">
<g>
<path d="M57.3714 47.2163C45.548 47.2163 35.9304 56.6339 35.9304 68.2097C35.9304 79.7855 45.5489 89.2032 57.3714 89.2032C69.194 89.2032 78.8125 79.7855 78.8125 68.2097C78.8125 56.6339 69.194 47.2163 57.3714 47.2163ZM57.3714 87.0469C46.7377 87.0469 38.0867 78.5966 38.0867 68.2097C38.0867 57.8229 46.7383 49.3726 57.3714 49.3726C68.0046 49.3726 76.6562 57.8229 76.6562 68.2097C76.6562 78.5966 68.0052 87.0469 57.3714 87.0469Z" fill="white" stroke="white" stroke-width="1"/>
<path d="M58.761 57.4523V55.9178C58.761 55.6319 58.6474 55.3577 58.4452 55.1555C58.243 54.9533 57.9688 54.8397 57.6829 54.8397C57.3969 54.8397 57.1227 54.9533 56.9205 55.1555C56.7183 55.3577 56.6047 55.6319 56.6047 55.9178V57.4547C55.5138 57.5972 54.4973 58.0858 53.7046 58.8487C52.0915 60.4208 51.9965 62.6248 52.0058 63.2627C52.0418 65.7403 53.924 67.8307 56.5825 68.3464L56.8238 68.3937C57.0252 68.4331 57.2714 68.4814 57.4227 68.5101C57.5152 68.5281 57.7308 68.5923 57.8458 68.6266C57.8848 68.6383 57.9231 68.6522 57.9605 68.6683C57.9747 68.6744 57.9891 68.6803 58.0036 68.6862L58.3743 68.8275C58.4114 68.8415 58.4477 68.8575 58.483 68.8754C58.6614 68.9653 58.7051 68.9913 58.8348 69.0666C58.8887 69.0975 58.9518 69.1346 59.028 69.178L59.0713 69.2054C59.0832 69.2131 59.0968 69.2215 59.1121 69.2307C59.5024 69.4663 61.4534 70.7345 61.5312 72.5847C61.5778 73.6918 61.2926 74.5376 60.6596 75.1706C59.787 76.0432 58.3094 76.3876 57.2326 76.3427C54.9617 76.2473 53.6208 74.4053 53.508 73.4009C53.4931 73.2594 53.4504 73.1224 53.3823 72.9975C53.3143 72.8727 53.2222 72.7625 53.1113 72.6734C53.0005 72.5843 52.8732 72.518 52.7366 72.4783C52.6 72.4386 52.457 72.4264 52.3157 72.4422C52.1743 72.4581 52.0376 72.5017 51.9132 72.5706C51.7888 72.6396 51.6793 72.7324 51.5909 72.8439C51.5026 72.9553 51.4372 73.0831 51.3984 73.2199C51.3597 73.3568 51.3484 73.4999 51.3652 73.6411C51.6777 76.4277 54.447 78.122 56.6046 78.4438V79.7539C56.6046 80.0398 56.7181 80.3141 56.9203 80.5163C57.1225 80.7184 57.3967 80.832 57.6827 80.832C57.9686 80.832 58.2428 80.7184 58.445 80.5163C58.6472 80.3141 58.7608 80.0398 58.7608 79.7539V78.3804C59.9498 78.1674 61.2236 77.6561 62.1844 76.6953C63.2377 75.6419 63.7568 74.1892 63.6855 72.4942C63.5648 69.6229 61.0184 67.8636 60.222 67.3822C60.2096 67.3743 60.1322 67.3262 60.1175 67.3174C60.0316 67.2685 59.9692 67.2322 59.9175 67.2022C59.7644 67.1132 59.6808 67.0655 59.4576 66.9524C59.355 66.9004 59.2498 66.8538 59.1423 66.8128L58.7905 66.6788C58.6839 66.6339 58.575 66.5947 58.4643 66.5614C58.2338 66.4926 58.0115 66.4277 57.8255 66.3923C57.6773 66.3641 57.4356 66.3169 57.2381 66.2781L56.9932 66.2303C55.0618 65.8556 54.1793 64.4544 54.1615 63.232C54.149 62.3657 54.4176 61.1656 55.2093 60.3929C55.84 59.7784 56.7512 59.4904 57.9168 59.5376C61.1153 59.6668 61.8484 62.3576 61.8818 62.4875C61.9508 62.7637 62.1263 63.0014 62.3699 63.1487C62.6135 63.296 62.9055 63.341 63.1821 63.2738C63.4588 63.2067 63.6976 63.0328 63.8465 62.7902C63.9955 62.5476 64.0424 62.2559 63.9771 61.9789C63.6486 60.7954 62.9786 59.7349 62.0509 58.9299C61.1232 58.1248 59.979 57.6109 58.761 57.4523Z" fill="white" stroke="white" stroke-width="1"/>
<path d="M55.8028 0.796875H5.99073C4.71433 0.801299 3.49181 1.31183 2.59135 2.21647C1.69089 3.12111 1.18602 4.34598 1.1875 5.62238V84.3388C1.18602 85.6152 1.69089 86.8401 2.59135 87.7447C3.49181 88.6493 4.71433 89.1599 5.99073 89.1643H55.8028C56.0887 89.1643 56.3629 89.0507 56.5651 88.8485C56.7673 88.6463 56.8809 88.3721 56.8809 88.0862C56.8809 87.8002 56.7673 87.526 56.5651 87.3238C56.3629 87.1216 56.0887 87.0081 55.8028 87.0081H5.99073C5.286 87.0043 4.61154 86.7212 4.11531 86.2207C3.61908 85.7203 3.3416 85.0435 3.34375 84.3388V5.62238C3.3416 4.91765 3.61908 4.24084 4.11531 3.74043C4.61154 3.24002 5.286 2.95688 5.99073 2.95312H55.8028C56.5075 2.95688 57.1819 3.24002 57.6782 3.74043C58.1744 4.24084 58.4519 4.91765 58.4497 5.62238V48.406C58.4497 48.6919 58.5633 48.9661 58.7655 49.1683C58.9677 49.3705 59.2419 49.4841 59.5279 49.4841C59.8138 49.4841 60.088 49.3705 60.2902 49.1683C60.4924 48.9661 60.606 48.6919 60.606 48.406V5.62238C60.6075 4.34597 60.1027 3.12107 59.2022 2.21642C58.3017 1.31177 57.0792 0.801252 55.8028 0.796875Z" fill="white" stroke="white" stroke-width="1"/>
<path d="M54.0238 28.3703C54.4049 28.3699 54.7703 28.2183 55.0398 27.9488C55.3093 27.6793 55.4609 27.3139 55.4613 26.9328V9.13098C55.4609 8.74986 55.3093 8.38448 55.0398 8.11499C54.7703 7.8455 54.4049 7.69391 54.0238 7.69348H7.54492C7.1638 7.69391 6.79842 7.8455 6.52893 8.11499C6.25944 8.38448 6.10785 8.74986 6.10742 9.13098V26.9328C6.10785 27.3139 6.25944 27.6793 6.52893 27.9488C6.79842 28.2183 7.1638 28.3699 7.54492 28.3703H54.0238ZM8.26367 9.84973H53.305V26.2141H8.26367V9.84973Z" fill="white" stroke="white" stroke-width="1"/>
<path d="M54.5697 49.561C54.8557 49.561 55.1299 49.4474 55.3321 49.2452C55.5343 49.043 55.6479 48.7688 55.6479 48.4828V33.9269C55.6477 33.542 55.4949 33.1729 55.2229 32.9006C54.951 32.6283 54.5821 32.4749 54.1973 32.4741H6.85192C6.46702 32.4748 6.09812 32.6282 5.82614 32.9005C5.55416 33.1729 5.40131 33.542 5.40112 33.9269V82.4785C5.40127 82.8634 5.55409 83.2325 5.82608 83.5049C6.09806 83.7773 6.46699 83.9307 6.85192 83.9314H37.179C37.4154 84.0181 37.6748 84.0181 37.9111 83.9314H43.5713C43.8572 83.9314 44.1314 83.8178 44.3336 83.6156C44.5358 83.4135 44.6494 83.1392 44.6494 82.8533C44.6494 82.5673 44.5358 82.2931 44.3336 82.0909C44.1314 81.8888 43.8572 81.7752 43.5713 81.7752H38.6236V76.035C38.6236 75.7491 38.51 75.4749 38.3078 75.2727C38.1056 75.0705 37.8314 74.9569 37.5454 74.9569C37.2595 74.9569 36.9853 75.0705 36.7831 75.2727C36.5809 75.4749 36.4673 75.7491 36.4673 76.035V81.7755H22.8001V71.8724H37.179C37.465 71.8724 37.7392 71.7588 37.9414 71.5566C38.1436 71.3544 38.2572 71.0802 38.2572 70.7943C38.2572 70.5083 38.1436 70.2341 37.9414 70.0319C37.7392 69.8297 37.465 69.7162 37.179 69.7162H22.8001V59.2328H37.1695V61.3531C37.1695 61.6391 37.2831 61.9133 37.4853 62.1155C37.6875 62.3177 37.9617 62.4313 38.2476 62.4313C38.5336 62.4313 38.8078 62.3177 39.01 62.1155C39.2122 61.9133 39.3258 61.6391 39.3258 61.3531V59.2328H39.7921C40.078 59.2328 40.3522 59.1192 40.5544 58.917C40.7566 58.7149 40.8702 58.4406 40.8702 58.1547C40.8702 57.8688 40.7566 57.5945 40.5544 57.3924C40.3522 57.1902 40.078 57.0766 39.7921 57.0766H39.3258V46.9681H53.4916V48.4828C53.4916 48.7688 53.6052 49.043 53.8074 49.2452C54.0096 49.4474 54.2838 49.561 54.5697 49.561ZM37.1695 34.6304V44.8118H22.8001V34.6304H37.1695ZM20.6438 34.6304V44.8118H7.55737V34.6304H20.6438ZM7.55737 46.9681H20.6438V57.0766H7.55737V46.9681ZM20.6438 81.7755H7.55737V71.8724H20.6438V81.7755ZM20.6438 69.7162H7.55737V59.2328H20.6438V69.7162ZM37.1695 57.0766H22.8001V46.9681H37.1695V57.0766ZM39.3258 44.8118V34.6304H53.4916V44.8118H39.3258Z" fill="white" stroke="white" stroke-width="1"/>
</g>
</svg>
