<svg width="92" height="92" viewBox="0 0 92 92" fill="none" xmlns="http://www.w3.org/2000/svg">
<g>
<path d="M30.235 15.6517C29.4844 15.0085 28.4923 14.7259 27.513 14.8781C19.4633 16.1243 13.3931 23.197 13.3931 31.3299C13.3931 35.7487 15.1321 39.9214 18.2896 43.0791C21.4472 46.2368 25.6198 47.9756 30.0389 47.9756C38.1717 47.9756 45.2444 41.9054 46.4906 33.8557C46.6423 32.8764 46.3604 31.8843 45.717 31.1337C45.0777 30.3878 44.1473 29.9598 43.1647 29.9598H32.0353C31.6899 29.9598 31.4089 29.6789 31.4089 29.3334V18.2038C31.4089 17.2212 30.9809 16.2911 30.235 15.6517V15.6517ZM32.0353 32.6999H43.1647C43.4133 32.6999 43.567 32.8358 43.6366 32.9169C43.7083 33.0006 43.8227 33.1794 43.7829 33.4365C42.7414 40.163 36.8329 45.2355 30.0389 45.2355C22.3711 45.2355 16.1332 38.9976 16.1332 31.3299C16.1332 24.536 21.2057 18.6273 27.9323 17.5859C27.9688 17.5802 28.0037 17.5776 28.0369 17.5776C28.2382 17.5776 28.38 17.6706 28.4518 17.7322C28.5327 17.8016 28.6688 17.9552 28.6688 18.204V29.3334C28.6688 31.1897 30.179 32.6999 32.0353 32.6999V32.6999Z" fill="white" stroke="white"/>
<path d="M83.3666 75.194C84.1233 75.194 84.7367 74.5806 84.7367 73.824V10.7887C84.7367 6.98928 81.6464 3.89826 77.8481 3.89826H75.103C73.9869 1.59346 71.6238 0 68.8952 0H14.1534C10.354 0 7.26294 3.09102 7.26294 6.89046V32.631C7.26294 33.3877 7.87636 34.0011 8.63299 34.0011C9.38963 34.0011 10.003 33.3877 10.003 32.631V6.89046C10.003 4.60192 11.8649 2.74011 14.1534 2.74011H68.8952C71.1847 2.74011 73.0474 4.60192 73.0474 6.89046V68.0588H62.3811C60.2548 68.0588 58.5248 69.7887 58.5248 71.915V82.9869H14.1534C11.8649 82.9869 10.003 81.1258 10.003 78.8383V38.8419C10.003 38.0853 9.38963 37.4719 8.63299 37.4719C7.87636 37.4719 7.26294 38.0853 7.26294 38.8419V78.8383C7.26294 82.6367 10.354 85.727 14.1534 85.727H16.2412C16.5546 89.238 19.5114 92 23.1024 92H77.8479C81.6462 92 84.7365 88.909 84.7365 85.1095V80.2175C84.7365 79.4609 84.1231 78.8475 83.3665 78.8475C82.6098 78.8475 81.9964 79.4609 81.9964 80.2175V85.1095C81.9964 87.3981 80.1353 89.2599 77.8479 89.2599H23.1026C21.0239 89.2599 19.2977 87.7236 18.9984 85.727H59.8785C59.8841 85.727 59.89 85.7277 59.8956 85.7277C60.2526 85.7277 60.6091 85.5891 60.8777 85.3129L75.3995 70.3846C75.6454 70.1318 75.7875 69.7812 75.7875 69.4286V6.63837H77.8481C80.1355 6.63837 81.9966 8.50018 81.9966 10.7887V73.824C81.9966 74.5806 82.61 75.194 83.3666 75.194V75.194ZM62.3811 70.7989H71.1741L61.2649 80.9853V71.915C61.2649 71.2996 61.7657 70.7989 62.3811 70.7989V70.7989Z" fill="white" stroke="white"/>
<path d="M61.6836 63.842C61.6836 63.0854 61.0702 62.472 60.3136 62.472H18.0007C17.244 62.472 16.6306 63.0854 16.6306 63.842C16.6306 64.5986 17.244 65.2121 18.0007 65.2121H60.3136C61.0702 65.2121 61.6836 64.5986 61.6836 63.842Z" fill="white" stroke="white"/>
<path d="M17.5827 69.3644C16.8261 69.3644 16.2126 69.9779 16.2126 70.7345C16.2126 71.4911 16.8261 72.1045 17.5827 72.1045H47.6325C48.3891 72.1045 49.0026 71.4911 49.0026 70.7345C49.0026 69.9779 48.3891 69.3644 47.6325 69.3644H17.5827Z" fill="white" stroke="white"/>
<path d="M16.6306 56.9493C16.6306 57.7059 17.244 58.3193 18.0007 58.3193H60.3136C61.0702 58.3193 61.6836 57.7059 61.6836 56.9493C61.6836 56.1926 61.0702 55.5792 60.3136 55.5792H18.0007C17.244 55.5792 16.6306 56.1926 16.6306 56.9493V56.9493Z" fill="white" stroke="white"/>
<path d="M38.0422 9.46875C37.066 9.32133 36.0782 9.60576 35.3316 10.2484C34.5885 10.8878 34.1624 11.8168 34.1624 12.7973V24.1351C34.1624 25.9914 35.6725 27.5016 37.5288 27.5016H51.0133C51.7699 27.5016 52.3833 26.8882 52.3833 26.1315C52.3833 21.6957 50.5844 17.3528 47.4479 14.2161C44.9197 11.6879 41.5793 10.002 38.0422 9.46875V9.46875ZM37.5288 24.7617C37.1829 24.7617 36.9025 24.4812 36.9025 24.1353V12.7973C36.9545 12.3329 37.1982 12.1617 37.6337 12.1782C40.5958 12.6246 43.393 14.0365 45.5102 16.1537C47.7319 18.3754 49.1522 21.3197 49.5371 24.4228C49.5594 24.6031 49.4158 24.7615 49.2342 24.7615H37.5288V24.7617Z" fill="white" stroke="white"/>
<path d="M56.2195 40.76C56.2195 40.7642 56.22 40.7682 56.22 40.7724V44.7719C56.22 46.5433 57.4533 48.0284 59.1052 48.4237V50.9927C59.1052 51.7493 59.7186 52.3627 60.4752 52.3627C61.2319 52.3627 61.8453 51.7493 61.8453 50.9927V48.4243C63.4981 48.0297 64.7323 46.5438 64.7323 44.7719V17.0646C65.5687 17.012 66.3831 17.3167 66.9748 17.9084C67.5248 18.4599 67.8279 19.1911 67.8279 19.9675V27.6075C67.8279 28.3641 68.4413 28.9775 69.1979 28.9775C69.9545 28.9775 70.568 28.3641 70.568 27.6075V19.9675C70.568 18.4604 69.9808 17.042 68.9135 15.9721C67.8467 14.9051 66.4284 14.3176 64.9199 14.3176C64.8574 14.3176 64.7947 14.3196 64.7323 14.3218V12.1951C64.7323 10.1227 63.0462 8.43658 60.9738 8.43658H59.9785C57.9061 8.43658 56.22 10.1227 56.22 12.1951V26.3163C56.22 26.3205 56.2195 26.3246 56.2195 26.3288C56.2195 26.333 56.22 26.337 56.22 26.3412V40.7478C56.22 40.7518 56.2195 40.7558 56.2195 40.76V40.76ZM61.9923 39.3899H58.9603V27.6988H61.9923V39.3899ZM60.9738 45.7903H59.9785C59.417 45.7903 58.9601 45.3334 58.9601 44.7719V42.1301H61.9922V44.7717C61.9923 45.3334 61.5355 45.7903 60.9738 45.7903V45.7903ZM59.9787 11.1767H60.9739C61.5355 11.1767 61.9923 11.6336 61.9923 12.1951V24.9587H58.9603V12.1951C58.9601 11.6336 59.417 11.1767 59.9787 11.1767V11.1767Z" fill="white" stroke="white"/>
</g>
</svg>
