<svg width="92" height="72" viewBox="0 0 92 72" fill="none" xmlns="http://www.w3.org/2000/svg">
<path d="M15.5412 22.5234H4.97559V27.9141H15.5412V22.5234Z" fill="white"/>
<path d="M15.5412 44.0859H4.97559V49.4766H15.5412V44.0859Z" fill="white"/>
<path d="M15.5412 33.3047H0V38.6953H15.5412V33.3047Z" fill="white"/>
<path d="M56.4657 0.465912C36.8722 0.465912 20.9316 16.4065 20.9316 36C20.9316 55.5935 36.8721 71.5341 56.4657 71.5341C76.0594 71.5341 92 55.5935 92 36C92 16.4065 76.0594 0.465912 56.4657 0.465912ZM56.4657 66.1435C39.8446 66.1435 26.3223 52.6211 26.3223 36C26.3223 19.3789 39.8446 5.85654 56.4657 5.85654C73.087 5.85654 86.6094 19.3789 86.6094 36C86.6094 52.6211 73.087 66.1435 56.4657 66.1435Z" fill="white"/>
<path d="M58.2065 37.3394V19.9282H52.8159V40.189L66.7072 49.6555L69.743 45.2009L58.2065 37.3394Z" fill="white"/>
</svg>
